<svg width="21" height="20" fill="none" xmlns="http://www.w3.org/2000/svg"><path d="M19.133 7.5v5c0 2.083-.416 3.541-1.35 4.483l-5.316-5.317 6.441-6.441c.15.658.225 1.408.225 2.275zm-.225-2.276L6.025 18.108c-2.508-.575-3.558-2.309-3.558-5.609v-5c0-4.166 1.666-5.833 5.833-5.833h5c3.3 0 5.033 1.05 5.608 3.558z" stroke="#002647" stroke-width="2" stroke-linecap="round" stroke-linejoin="round"/><path d="M17.783 16.983c-.941.933-2.4 1.35-4.483 1.35h-5c-.867 0-1.617-.075-2.275-.225l6.442-6.442 5.316 5.317z" stroke="#002647" stroke-width="2" stroke-linecap="round" stroke-linejoin="round"/><path d="M6 6.65c.567-2.442 4.233-2.442 4.8 0 .325 1.433-.575 2.65-1.367 3.4a1.5 1.5 0 01-2.066 0C6.575 9.3 5.667 8.083 6 6.65z" stroke="#002647" stroke-width="2"/><path d="M8.379 7.25h.007" stroke="#002647" stroke-width="2" stroke-linecap="round" stroke-linejoin="round"/></svg>